<svg width="306" height="306" viewBox="0 0 306 306" fill="none" xmlns="http://www.w3.org/2000/svg">
<g clip-path="url(#clip0_1_9)">
<path d="M296.217 225.717C291.279 225.717 287.277 229.72 287.277 234.657V246.237L223.006 246.237V245.659C241.012 234.389 256.154 218.897 267.003 200.591C279.104 180.176 285.499 156.776 285.499 132.921C285.499 97.4166 271.673 64.0377 246.567 38.932C221.462 13.8262 188.083 0 152.578 0C117.074 0 83.6953 13.8262 58.5895 38.9314C33.4844 64.0371 19.6582 97.416 19.6582 132.92C19.6582 156.759 26.0462 180.146 38.1309 200.553C48.9676 218.85 64.0931 234.34 82.0789 245.614V246.237H17.8803V234.657C17.8803 229.719 13.8775 225.717 8.94015 225.717C4.0028 225.717 0 229.719 0 234.657L0 296.217C0 301.154 4.0028 305.157 8.94015 305.157H132.058C134.432 305.157 136.709 304.213 138.385 302.533C140.062 300.853 141.003 298.575 140.999 296.201L140.855 212.955C140.848 208.882 138.088 205.328 134.143 204.313C101.596 195.935 78.8646 166.578 78.8646 132.921C78.8646 92.2754 111.932 59.207 152.578 59.207C193.225 59.207 226.292 92.2748 226.292 132.921C226.292 166.411 203.783 195.645 171.495 204.187C167.361 204.971 164.233 208.601 164.23 212.963L164.159 296.21C164.157 298.582 165.098 300.858 166.775 302.536C168.451 304.214 170.727 305.157 173.099 305.157H296.217C301.154 305.157 305.157 301.154 305.157 296.217V234.657C305.157 229.72 301.154 225.717 296.217 225.717Z" fill="#171818"/>
<path d="M226.292 132.921C226.292 166.411 203.783 195.645 171.495 204.187C167.361 204.971 164.233 208.601 164.23 212.963L164.159 296.21C164.157 298.582 165.098 300.858 166.775 302.536C168.451 304.214 170.727 305.157 173.099 305.157H296.217C301.154 305.157 305.157 301.154 305.157 296.217V234.657C305.157 229.72 301.154 225.717 296.217 225.717C291.279 225.717 287.277 229.72 287.277 234.657V246.237H223.006V245.659C241.012 234.389 256.154 218.897 267.003 200.591C279.104 180.176 285.499 156.776 285.499 132.921C285.499 97.4166 271.673 64.0377 246.567 38.932C221.462 13.8262 188.083 0 152.578 0V59.207C193.224 59.207 226.292 92.2748 226.292 132.921Z" fill="#11141B"/>
</g>
<defs>
<clipPath id="clip0_1_9">
<rect width="305.157" height="305.157" fill="white"/>
</clipPath>
</defs>
</svg>
